<svg xmlns="http://www.w3.org/2000/svg" viewBox="0 0 220 220" role="img" aria-label="SGU logo">
  <defs>
    <linearGradient id="sguBlue" x1="0%" y1="0%" x2="100%" y2="100%">
      <stop offset="0%" stop-color="#4fd2f0" />
      <stop offset="100%" stop-color="#26a8d3" />
    </linearGradient>
    <linearGradient id="sguWave" x1="0%" y1="0%" x2="100%" y2="0%">
      <stop offset="0%" stop-color="#5ac7df" />
      <stop offset="100%" stop-color="#1173b2" />
    </linearGradient>
  </defs>

  <circle cx="110" cy="110" r="102" fill="#f3f8fc" stroke="#9dbad0" stroke-width="4" />
  <circle cx="110" cy="110" r="88" fill="url(#sguBlue)" />

  <path
    d="M38 126c20 8 40 12 60 12s40-4 60-12c-17 16-37 26-60 26s-43-10-60-26z"
    fill="url(#sguWave)"
    opacity="0.95"
  />
  <path
    d="M30 140c25 8 52 12 80 12s55-4 80-12c-20 20-46 32-80 32s-60-12-80-32z"
    fill="#2f8cc8"
    opacity="0.9"
  />

  <g fill="#1a3e9c">
    <path d="M63 82c0-15 12-27 27-27h36v15H90c-7 0-12 5-12 12 0 6 4 11 10 12l22 5c12 3 21 13 21 26 0 15-12 27-27 27H69v-15h35c7 0 12-5 12-12 0-6-4-11-10-12l-22-5C72 105 63 95 63 82z" />
    <path d="M131 55h16l16 61h-14l-3-12h-14l-3 12h-14l16-61zm8 21-4 15h8l-4-15z" />
  </g>

  <text x="110" y="36" text-anchor="middle" font-family="Arial, sans-serif" font-size="18" font-weight="700" fill="#0c5394">DAI HOC SAI GON</text>
</svg>
